# 3ds Max Wavefront OBJ Exporter v0.97b - (c)2007 guruware
# File Created: 25.04.2016 11:58:22

mtllib nave3DModel.mtl

#
# object nave
#

v  0.5687 0.0531 0.9186
v  0.0000 0.0000 1.2200
v  0.0000 -0.1291 -0.0000
v  1.0401 0.0000 -0.0000
v  0.0000 -0.1291 -0.9021
v  1.0401 0.0000 -1.0371
v  0.2126 0.8650 0.8448
v  0.1799 1.0805 0.4743
v  0.0000 1.1563 0.4927
v  0.0000 0.9148 0.9430
v  0.5924 0.8528 -0.9021
v  0.0000 1.0000 -0.9021
v  0.0000 1.0000 -0.0000
v  0.6700 0.8335 -0.0000
v  1.0401 0.3812 -0.0000
v  0.5687 0.3189 0.9186
v  1.9294 0.0000 -0.7287
v  1.9294 0.0817 -0.7287
v  1.7029 0.1049 -0.4036
v  1.7029 0.0000 -0.4036
v  0.5687 0.6351 0.7140
v  1.0401 0.5000 -1.0371
v  0.7294 0.7800 -0.9021
v  0.6700 0.0917 -1.3756
v  0.0000 -0.0053 -1.4611
v  0.0000 0.5000 -1.4683
v  0.6700 0.5000 -1.3756
v  0.5602 0.6423 -1.3234
v  0.0000 0.3189 1.2200
v  0.0000 0.6725 1.0882
v  0.1743 0.6721 0.9669
v  0.4362 0.7249 -1.3011
v  0.0000 0.8487 -1.3011
v  1.4847 0.0000 -0.3419
v  1.4847 0.1089 -0.3419
v  1.4847 0.0000 -0.9021
v  1.4847 0.2278 -0.9021
v  0.2732 0.8831 0.2626
v  0.3104 0.7182 0.7635
v  0.0000 0.9912 0.2185
v  0.2613 0.5247 0.9258
v  0.0000 0.5437 1.1123
v  0.2299 0.9814 0.3663
v  0.2607 0.7932 0.8002
v  0.0000 1.0842 0.3284
v  0.2168 0.5938 0.9464
v  0.0000 0.6086 1.1012
v  0.7232 1.0708 -1.0859
v  0.8305 1.0281 -1.0950
v  0.8073 1.1244 -1.4615
v  0.7390 1.1700 -1.4492
v  0.3560 0.3454 -1.4540
v  0.2518 0.0936 -1.4540
v  0.2518 0.0936 -1.6703
v  0.3560 0.3454 -1.6703
v  0.0000 -0.0107 -1.6703
v  0.0000 0.7014 -1.4540
v  0.2518 0.5971 -1.4540
v  0.2518 0.5971 -1.6703
v  0.0000 0.7014 -1.6703
v  0.1780 0.3454 -1.2788
v  0.1259 0.2195 -1.2788
v  0.0000 0.1673 -1.2788
v  0.0000 0.5234 -1.2788
v  0.1259 0.4712 -1.2788
v  0.2897 0.3454 -1.6950
v  0.2049 0.1405 -1.6950
v  0.0000 0.3454 -1.5586
v  0.0000 0.0557 -1.6950
v  0.0000 0.6350 -1.6950
v  0.2049 0.5502 -1.6950
v  -0.5687 0.0531 0.9186
v  -1.0401 0.0000 -0.0000
v  -1.0401 0.0000 -1.0371
v  -0.2126 0.8650 0.8448
v  -0.1799 1.0805 0.4743
v  -0.5924 0.8528 -0.9021
v  -0.6700 0.8335 -0.0000
v  -0.5687 0.3189 0.9186
v  -1.0401 0.3812 -0.0000
v  -1.9294 0.0000 -0.7287
v  -1.7029 0.0000 -0.4036
v  -1.7029 0.1049 -0.4036
v  -1.9294 0.0817 -0.7287
v  -0.5687 0.6351 0.7140
v  -1.0401 0.5000 -1.0371
v  -0.7294 0.7800 -0.9021
v  -0.6700 0.0917 -1.3756
v  -0.6700 0.5000 -1.3756
v  -0.5602 0.6423 -1.3234
v  -0.1743 0.6721 0.9669
v  -0.4362 0.7249 -1.3011
v  -1.4847 0.1089 -0.3419
v  -1.4847 0.0000 -0.3419
v  -1.4847 0.0000 -0.9021
v  -1.4847 0.2278 -0.9021
v  -0.3104 0.7182 0.7635
v  -0.2732 0.8831 0.2626
v  -0.2613 0.5247 0.9258
v  -0.2299 0.9814 0.3663
v  -0.2607 0.7932 0.8002
v  -0.2168 0.5938 0.9464
v  -0.7232 1.0708 -1.0859
v  -0.7390 1.1700 -1.4492
v  -0.8073 1.1244 -1.4615
v  -0.8305 1.0281 -1.0950
v  -0.3560 0.3454 -1.4540
v  -0.3560 0.3454 -1.6703
v  -0.2518 0.0936 -1.6703
v  -0.2518 0.0936 -1.4540
v  -0.2518 0.5971 -1.6703
v  -0.2518 0.5971 -1.4540
v  -0.1259 0.2195 -1.2788
v  -0.1780 0.3454 -1.2788
v  -0.1259 0.4712 -1.2788
v  -0.2897 0.3454 -1.6950
v  -0.2049 0.1405 -1.6950
v  -0.2049 0.5502 -1.6950
# 118 vertices

vn 0.1369 -0.9844 0.1104
vn 0.0000 -0.9945 0.1052
vn -0.0000 -0.9984 0.0574
vn 0.0918 -0.9951 0.0370
vn -0.0000 -0.9951 -0.0991
vn 0.0833 -0.9933 -0.0801
vn 0.6742 0.5360 0.5082
vn 0.6367 0.7710 -0.0116
vn 0.0000 0.9983 0.0590
vn 0.0000 0.7074 0.7068
vn 0.3190 0.9402 -0.1194
vn -0.0000 0.9831 -0.1829
vn -0.0000 0.9998 0.0200
vn 0.5437 0.8213 0.1728
vn 0.7097 -0.0000 0.7045
vn 0.7658 -0.0000 0.6430
vn 0.8064 0.4388 0.3965
vn 0.6763 0.2473 0.6939
vn 0.9567 0.0000 -0.2910
vn 0.8568 0.4587 -0.2355
vn 0.4871 0.5672 0.6641
vn 0.5802 0.0000 0.8145
vn 0.6975 0.5527 0.4561
vn 0.6733 0.5561 -0.4873
vn 0.5757 0.8039 -0.1492
vn 0.4268 -0.0029 -0.9044
vn -0.0000 -0.9785 -0.2064
vn 0.0000 0.2124 -0.9772
vn 0.4464 0.3149 -0.8376
vn 0.3384 0.5434 -0.7682
vn 0.0000 0.0000 1.0000
vn 0.0000 0.2457 0.9693
vn -0.0000 0.3285 0.9445
vn 0.6401 0.2482 0.7271
vn -0.0000 -0.9650 -0.2623
vn 0.1834 -0.8797 -0.4388
vn 0.1794 0.6572 -0.7321
vn 0.0000 0.7635 -0.6458
vn 0.4829 0.0000 -0.8757
vn 0.4489 0.0000 0.8936
vn 0.5224 0.5409 0.6591
vn 0.0000 -1.0000 -0.0000
vn 0.4985 0.6257 -0.6000
vn 0.3271 0.0000 -0.9450
vn 0.3126 0.9033 0.2936
vn 0.3627 0.7465 0.5578
vn 0.0000 0.9934 0.1144
vn 0.4092 0.5226 0.7479
vn 0.0000 0.4322 0.9018
vn 0.7411 0.6196 -0.2588
vn 0.8572 0.3581 0.3700
vn 0.8499 0.3693 0.3758
vn 0.7315 0.6203 -0.2830
vn -0.0000 0.7772 -0.6292
vn 0.0000 0.8346 -0.5509
vn 0.6776 0.2053 0.7062
vn -0.0000 0.1757 0.9844
vn -0.0000 0.1679 0.9858
vn 0.6850 0.2351 0.6895
vn 0.4049 0.8881 0.2174
vn 0.3773 0.9012 0.2131
vn 0.5348 0.8115 0.2356
vn 0.5682 0.7872 0.2396
vn -0.8005 0.5861 0.1253
vn 0.2752 0.5178 0.8100
vn 0.8527 -0.4894 -0.1826
vn -0.2638 -0.1381 -0.9546
vn 0.9343 0.0000 0.3564
vn 0.6533 -0.6657 0.3606
vn 0.7071 -0.7071 -0.0000
vn 1.0000 0.0000 -0.0000
vn 0.0000 -0.9999 0.0146
vn -0.0000 0.9343 0.3564
vn 0.6607 0.6607 0.3564
vn 0.7071 0.7071 -0.0000
vn 0.0000 1.0000 -0.0000
vn 0.7014 0.0000 0.7128
vn 0.4924 -0.5078 0.7069
vn 0.0000 -0.7260 0.6877
vn 0.0000 0.7014 0.7128
vn 0.4959 0.4959 0.7128
vn -0.4259 0.0000 -0.9048
vn -0.3011 0.3012 -0.9048
vn -0.0000 -0.0000 -1.0000
vn 0.0000 0.4259 -0.9048
vn 0.0000 -0.4259 -0.9048
vn -0.3011 -0.3012 -0.9048
vn 0.2465 -0.2465 -0.9373
vn 0.2466 -0.2465 -0.9373
vn 0.3486 -0.0000 -0.9373
vn 0.0000 -0.3487 -0.9372
vn 0.2465 0.2465 -0.9373
vn 0.2466 0.2465 -0.9373
vn -0.0000 0.3487 -0.9372
vn 0.0000 0.3487 -0.9372
vn -0.1369 -0.9844 0.1104
vn -0.0918 -0.9951 0.0370
vn -0.0833 -0.9933 -0.0801
vn -0.6742 0.5360 0.5082
vn -0.6367 0.7710 -0.0116
vn -0.3190 0.9402 -0.1194
vn -0.5437 0.8213 0.1728
vn -0.7097 -0.0000 0.7045
vn -0.6763 0.2473 0.6939
vn -0.8064 0.4388 0.3965
vn -0.7658 -0.0000 0.6430
vn -0.9567 0.0000 -0.2910
vn -0.5802 0.0000 0.8145
vn -0.4871 0.5672 0.6641
vn -0.8568 0.4587 -0.2355
vn -0.6975 0.5527 0.4561
vn -0.6733 0.5561 -0.4873
vn -0.5757 0.8039 -0.1492
vn -0.4268 -0.0029 -0.9044
vn -0.4464 0.3149 -0.8376
vn -0.3384 0.5434 -0.7682
vn -0.6401 0.2482 0.7271
vn -0.1834 -0.8797 -0.4388
vn -0.1794 0.6572 -0.7321
vn -0.4829 0.0000 -0.8757
vn -0.5224 0.5409 0.6591
vn -0.4489 0.0000 0.8936
vn -0.3271 0.0000 -0.9450
vn -0.4985 0.6257 -0.6000
vn -0.3627 0.7465 0.5578
vn -0.3126 0.9033 0.2936
vn -0.4092 0.5226 0.7479
vn -0.7411 0.6196 -0.2588
vn -0.7315 0.6203 -0.2830
vn -0.8499 0.3693 0.3758
vn -0.8572 0.3581 0.3700
vn -0.6776 0.2053 0.7062
vn -0.6850 0.2351 0.6895
vn -0.4049 0.8881 0.2174
vn -0.5682 0.7872 0.2396
vn -0.5348 0.8115 0.2356
vn -0.3773 0.9012 0.2131
vn 0.8005 0.5861 0.1253
vn -0.2752 0.5178 0.8100
vn -0.8527 -0.4894 -0.1826
vn 0.2638 -0.1381 -0.9546
vn -0.9343 0.0000 0.3564
vn -1.0000 0.0000 -0.0000
vn -0.7071 -0.7071 -0.0000
vn -0.6533 -0.6657 0.3606
vn -0.7071 0.7071 -0.0000
vn -0.6607 0.6607 0.3564
vn -0.4924 -0.5078 0.7069
vn -0.7014 0.0000 0.7128
vn -0.4959 0.4959 0.7128
vn 0.4259 0.0000 -0.9048
vn 0.3011 0.3012 -0.9048
vn 0.3011 -0.3012 -0.9048
vn -0.2465 -0.2465 -0.9373
vn -0.3486 -0.0000 -0.9373
vn -0.2466 -0.2465 -0.9373
vn -0.2465 0.2465 -0.9373
vn -0.2466 0.2465 -0.9373
# 158 vertex normals

vt 0.8928 0.6678 0.0000
vt 0.9653 0.6297 0.0000
vt 0.9671 0.7854 0.0000
vt 0.8342 0.7849 0.0000
vt 0.9678 0.9001 0.0000
vt 0.8327 0.9163 0.0000
vt 0.4262 0.8602 0.0000
vt 0.5482 0.8043 0.0000
vt 0.5875 0.8519 0.0000
vt 0.4411 0.9355 0.0000
vt 0.7144 0.3548 0.0000
vt 0.8695 0.4763 0.0000
vt 0.6781 0.7028 0.0000
vt 0.5099 0.5573 0.0000
vt 0.1605 0.7337 0.0000
vt 0.2418 0.4065 0.0000
vt 0.3621 0.4371 0.0000
vt 0.2421 0.7520 0.0000
vt 0.3086 0.0302 0.0000
vt 0.3194 0.0458 0.0000
vt 0.2947 0.1650 0.0000
vt 0.2641 0.1625 0.0000
vt 0.3543 0.7297 0.0000
vt 0.6113 0.2003 0.0000
vt 0.6742 0.3263 0.0000
vt 0.7741 0.0825 0.0000
vt 0.9903 0.0566 0.0000
vt 0.9855 0.2271 0.0000
vt 0.7706 0.2001 0.0000
vt 0.7940 0.2460 0.0000
vt 0.1170 0.9423 0.0000
vt 0.2209 0.9558 0.0000
vt 0.3487 0.9516 0.0000
vt 0.3576 0.8834 0.0000
vt 0.9661 0.9754 0.0000
vt 0.8830 0.9560 0.0000
vt 0.8248 0.2724 0.0000
vt 0.9452 0.3530 0.0000
vt 0.6190 0.0313 0.0000
vt 0.2813 0.2350 0.0000
vt 0.3174 0.2348 0.0000
vt 0.7753 0.8983 0.0000
vt 0.7770 0.8273 0.0000
vt 0.4624 0.1143 0.0000
vt 0.4660 0.0383 0.0000
vt 0.7184 0.8742 0.0000
vt 0.7491 0.8342 0.0000
vt 0.5435 0.7089 0.0000
vt 0.3954 0.8072 0.0000
vt 0.6307 0.7556 0.0000
vt 0.3164 0.8451 0.0000
vt 0.3032 0.9486 0.0000
vt 0.5453 0.7569 0.0000
vt 0.4118 0.8333 0.0000
vt 0.6163 0.7990 0.0000
vt 0.3358 0.8640 0.0000
vt 0.3261 0.9502 0.0000
vt 0.1615 0.4472 0.0000
vt 0.1929 0.4364 0.0000
vt 0.1911 0.5652 0.0000
vt 0.1822 0.5559 0.0000
vt 0.0213 0.5031 0.0000
vt 0.0920 0.3819 0.0000
vt 0.1299 0.3500 0.0000
vt 0.0328 0.6970 0.0000
vt 0.0149 0.5508 0.0000
vt 0.1303 0.6666 0.0000
vt 0.0954 0.1859 0.0000
vt 0.1059 0.1126 0.0000
vt 0.1648 0.1210 0.0000
vt 0.1504 0.1898 0.0000
vt 0.1110 0.0355 0.0000
vt 0.1958 0.0522 0.0000
vt 0.0895 0.3370 0.0000
vt 0.0954 0.2600 0.0000
vt 0.1549 0.2600 0.0000
vt 0.1758 0.3325 0.0000
vt 0.0273 0.1811 0.0000
vt 0.0343 0.1178 0.0000
vt 0.0320 0.0682 0.0000
vt 0.0160 0.2934 0.0000
vt 0.0252 0.2447 0.0000
vt 0.1621 0.1907 0.0000
vt 0.1797 0.1299 0.0000
vt 0.2538 0.1972 0.0000
vt 0.2240 0.0843 0.0000
vt 0.2083 0.3047 0.0000
vt 0.1710 0.2533 0.0000
# 88 texture coords

g nave
usemtl Material__61
s 2
f 1/1/1 2/2/2 3/3/3 
f 3/3/3 4/4/4 1/1/1 
f 3/3/3 5/5/5 6/6/6 
f 6/6/6 4/4/4 3/3/3 
f 7/7/7 8/8/8 9/9/9 
f 9/9/9 10/10/10 7/7/7 
s 1
f 11/11/11 12/12/12 13/13/13 
f 13/13/13 14/14/14 11/11/11 
f 1/15/15 4/16/16 15/17/17 
f 15/17/17 16/18/18 1/15/15 
f 17/19/19 18/20/20 19/21/21 
f 19/21/21 20/22/22 17/19/19 
f 16/18/18 15/17/17 14/14/14 
f 14/14/14 21/23/23 16/18/18 
f 22/24/24 23/25/25 14/14/14 
f 14/14/14 15/17/17 22/24/24 
f 24/26/26 25/27/27 26/28/28 
f 26/28/28 27/29/29 24/26/26 
f 27/29/29 26/28/28 28/30/30 
f 2/31/31 1/15/15 16/18/18 
f 16/18/18 29/32/32 2/31/31 
s 2
f 30/33/33 31/34/34 7/7/7 
f 7/7/7 10/10/10 30/33/33 
f 25/35/35 24/36/36 6/6/6 
f 6/6/6 5/5/5 25/35/35 
s 1
f 32/37/37 33/38/38 12/12/12 
f 12/12/12 11/11/11 32/37/37 
f 24/26/26 27/29/29 22/24/24 
f 22/24/24 6/39/39 24/26/26 
f 27/29/29 28/30/30 23/25/25 
f 23/25/25 22/24/24 27/29/29 
f 4/16/16 34/40/40 35/41/41 
f 35/41/41 15/17/17 4/16/16 
s 2
f 6/6/6 36/42/42 34/43/42 
f 34/43/42 4/4/4 6/6/6 
s 1
f 6/39/39 22/24/24 37/44/43 
f 37/44/43 36/45/44 6/39/39 
f 22/24/24 15/17/17 35/41/41 
f 35/41/41 37/44/43 22/24/24 
f 34/40/40 20/22/22 19/21/21 
f 19/21/21 35/41/41 34/40/40 
s 2
f 36/42/42 17/46/42 20/47/42 
f 20/47/42 34/43/42 36/42/42 
s 1
f 18/20/20 17/19/19 36/45/44 
f 36/45/44 37/44/43 18/20/20 
f 19/21/21 18/20/20 37/44/43 
f 37/44/43 35/41/41 19/21/21 
f 21/23/23 14/14/14 38/48/45 
f 38/48/45 39/49/46 21/23/23 
f 14/14/14 13/13/13 40/50/47 
f 40/50/47 38/48/45 14/14/14 
f 29/32/32 16/18/18 41/51/48 
f 41/51/48 42/52/49 29/32/32 
f 16/18/18 21/23/23 39/49/46 
f 39/49/46 41/51/48 16/18/18 
s 2
f 43/53/50 44/54/51 39/49/52 
f 39/49/52 38/48/53 43/53/50 
f 40/50/54 45/55/55 43/53/50 
f 43/53/50 38/48/53 40/50/54 
f 46/56/56 47/57/57 42/52/58 
f 42/52/58 41/51/59 46/56/56 
f 39/49/52 44/54/51 46/56/56 
f 46/56/56 41/51/59 39/49/52 
f 8/8/8 7/7/7 44/54/51 
f 44/54/51 43/53/50 8/8/8 
f 45/55/55 9/9/9 8/8/8 
f 8/8/8 43/53/50 45/55/55 
f 31/34/34 30/33/33 47/57/57 
f 47/57/57 46/56/56 31/34/34 
f 44/54/51 7/7/7 31/34/34 
f 31/34/34 46/56/56 44/54/51 
s 1
f 14/14/14 23/25/25 11/11/11 
f 48/58/60 49/59/61 50/60/62 
f 50/60/62 51/61/63 48/58/60 
s 4
f 32/62/64 11/63/64 48/58/64 
f 48/58/64 51/61/64 32/62/64 
s 2
f 11/63/65 23/64/65 49/59/65 
f 49/59/65 48/58/65 11/63/65 
s 4
f 23/65/66 28/66/66 50/60/66 
f 50/60/66 49/67/66 23/65/66 
s 2
f 28/66/67 32/62/67 51/61/67 
f 51/61/67 50/60/67 28/66/67 
s 1
f 26/28/28 32/37/37 28/30/30 
f 26/28/28 33/38/38 32/37/37 
f 52/68/68 53/69/69 54/70/70 
f 54/70/70 55/71/71 52/68/68 
f 53/69/69 25/72/27 56/73/72 
f 56/73/72 54/70/70 53/69/69 
f 57/74/73 58/75/74 59/76/75 
f 59/76/75 60/77/76 57/74/73 
f 58/75/74 52/68/68 55/71/71 
f 55/71/71 59/76/75 58/75/74 
f 53/69/69 52/68/68 61/78/77 
f 61/78/77 62/79/78 53/69/69 
f 25/72/27 53/69/69 62/79/78 
f 62/79/78 63/80/79 25/72/27 
f 58/75/74 57/74/73 64/81/80 
f 64/81/80 65/82/81 58/75/74 
f 52/68/68 58/75/74 65/82/81 
f 65/82/81 61/78/77 52/68/68 
f 66/83/82 67/84/83 68/85/84 
f 67/84/83 69/86/85 68/85/84 
f 70/87/86 71/88/87 68/85/84 
f 71/88/87 66/83/82 68/85/84 
s 2
f 54/70/88 67/84/89 66/83/90 
f 66/83/90 55/71/90 54/70/88 
f 56/73/91 69/86/91 67/84/89 
f 67/84/89 54/70/88 56/73/91 
f 59/76/92 71/88/93 70/87/94 
f 70/87/94 60/77/95 59/76/92 
f 55/71/90 66/83/90 71/88/93 
f 71/88/93 59/76/92 55/71/90 
f 72/1/96 73/4/97 3/3/3 
f 3/3/3 2/2/2 72/1/96 
f 3/3/3 73/4/97 74/6/98 
f 74/6/98 5/5/5 3/3/3 
f 75/7/99 10/10/10 9/9/9 
f 9/9/9 76/8/100 75/7/99 
s 1
f 77/11/101 78/14/102 13/13/13 
f 13/13/13 12/12/12 77/11/101 
f 72/15/103 79/18/104 80/17/105 
f 80/17/105 73/16/106 72/15/103 
f 81/19/107 82/22/108 83/21/109 
f 83/21/109 84/20/110 81/19/107 
f 79/18/104 85/23/111 78/14/102 
f 78/14/102 80/17/105 79/18/104 
f 86/24/112 80/17/105 78/14/102 
f 78/14/102 87/25/113 86/24/112 
f 88/26/114 89/29/115 26/28/28 
f 26/28/28 25/27/27 88/26/114 
f 89/29/115 90/30/116 26/28/28 
f 2/31/31 29/32/32 79/18/104 
f 79/18/104 72/15/103 2/31/31 
s 2
f 30/33/33 10/10/10 75/7/99 
f 75/7/99 91/34/117 30/33/33 
f 25/35/35 5/5/5 74/6/98 
f 74/6/98 88/36/118 25/35/35 
s 1
f 92/37/119 77/11/101 12/12/12 
f 12/12/12 33/38/38 92/37/119 
f 88/26/114 74/39/120 86/24/112 
f 86/24/112 89/29/115 88/26/114 
f 89/29/115 86/24/112 87/25/113 
f 87/25/113 90/30/116 89/29/115 
f 73/16/106 80/17/105 93/41/121 
f 93/41/121 94/40/122 73/16/106 
s 2
f 74/6/98 73/4/97 94/43/42 
f 94/43/42 95/42/42 74/6/98 
s 1
f 74/39/120 95/45/123 96/44/124 
f 96/44/124 86/24/112 74/39/120 
f 86/24/112 96/44/124 93/41/121 
f 93/41/121 80/17/105 86/24/112 
f 94/40/122 93/41/121 83/21/109 
f 83/21/109 82/22/108 94/40/122 
s 2
f 95/42/42 94/43/42 82/47/42 
f 82/47/42 81/46/42 95/42/42 
s 1
f 84/20/110 96/44/124 95/45/123 
f 95/45/123 81/19/107 84/20/110 
f 83/21/109 93/41/121 96/44/124 
f 96/44/124 84/20/110 83/21/109 
f 85/23/111 97/49/125 98/48/126 
f 98/48/126 78/14/102 85/23/111 
f 78/14/102 98/48/126 40/50/47 
f 40/50/47 13/13/13 78/14/102 
f 29/32/32 42/52/49 99/51/127 
f 99/51/127 79/18/104 29/32/32 
f 79/18/104 99/51/127 97/49/125 
f 97/49/125 85/23/111 79/18/104 
s 2
f 100/53/128 98/48/129 97/49/130 
f 97/49/130 101/54/131 100/53/128 
f 40/50/54 98/48/129 100/53/128 
f 100/53/128 45/55/55 40/50/54 
f 102/56/132 99/51/133 42/52/58 
f 42/52/58 47/57/57 102/56/132 
f 97/49/130 99/51/133 102/56/132 
f 102/56/132 101/54/131 97/49/130 
f 76/8/100 100/53/128 101/54/131 
f 101/54/131 75/7/99 76/8/100 
f 45/55/55 100/53/128 76/8/100 
f 76/8/100 9/9/9 45/55/55 
f 91/34/117 102/56/132 47/57/57 
f 47/57/57 30/33/33 91/34/117 
f 101/54/131 102/56/132 91/34/117 
f 91/34/117 75/7/99 101/54/131 
s 1
f 78/14/102 77/11/101 87/25/113 
f 103/58/134 104/61/135 105/60/136 
f 105/60/136 106/59/137 103/58/134 
s 4
f 92/62/138 104/61/138 103/58/138 
f 103/58/138 77/63/138 92/62/138 
s 2
f 77/63/139 103/58/139 106/59/139 
f 106/59/139 87/64/139 77/63/139 
s 4
f 87/65/140 106/67/140 105/60/140 
f 105/60/140 90/66/140 87/65/140 
s 2
f 90/66/141 105/60/141 104/61/141 
f 104/61/141 92/62/141 90/66/141 
s 1
f 26/28/28 90/30/116 92/37/119 
f 26/28/28 92/37/119 33/38/38 
f 107/68/142 108/71/143 109/70/144 
f 109/70/144 110/69/145 107/68/142 
f 110/69/145 109/70/144 56/73/72 
f 56/73/72 25/72/27 110/69/145 
f 57/74/73 60/77/76 111/76/146 
f 111/76/146 112/75/147 57/74/73 
f 112/75/147 111/76/146 108/71/143 
f 108/71/143 107/68/142 112/75/147 
f 110/69/145 113/79/148 114/78/149 
f 114/78/149 107/68/142 110/69/145 
f 25/72/27 63/80/79 113/79/148 
f 113/79/148 110/69/145 25/72/27 
f 112/75/147 115/82/150 64/81/80 
f 64/81/80 57/74/73 112/75/147 
f 107/68/142 114/78/149 115/82/150 
f 115/82/150 112/75/147 107/68/142 
f 116/83/151 68/85/84 117/84/152 
f 117/84/152 68/85/84 69/86/85 
f 70/87/86 68/85/84 118/88/153 
f 118/88/153 68/85/84 116/83/151 
s 2
f 109/70/154 108/71/155 116/83/155 
f 116/83/155 117/84/156 109/70/154 
f 56/73/91 109/70/154 117/84/156 
f 117/84/156 69/86/91 56/73/91 
f 111/76/157 60/77/95 70/87/94 
f 70/87/94 118/88/158 111/76/157 
f 108/71/155 111/76/157 118/88/158 
f 118/88/158 116/83/155 108/71/155 
# 224 faces

